<svg version="1.1" viewBox="0 0 592.02 592.02" xmlns="http://www.w3.org/2000/svg">

	
		
			<circle cx="503.44" cy="93.853" r="21.216"/>
			<path d="m503.44 115.57c-11.975 0-21.717-9.742-21.717-21.716 0-11.975 9.742-21.716 21.717-21.716 11.974 0 21.715 9.742 21.715 21.716s-9.741 21.716-21.715 21.716zm0-42.432c-11.423 0-20.717 9.293-20.717 20.716s9.294 20.716 20.717 20.716c11.422 0 20.715-9.293 20.715-20.716s-9.293-20.716-20.715-20.716z"/>
		
		
			<circle cx="440.2" cy="93.853" r="21.216"/>
			<path d="m440.2 115.57c-11.975 0-21.717-9.742-21.717-21.716 0-11.975 9.742-21.716 21.717-21.716 11.974 0 21.715 9.742 21.715 21.716s-9.741 21.716-21.715 21.716zm0-42.432c-11.423 0-20.717 9.293-20.717 20.716s9.294 20.716 20.717 20.716c11.422 0 20.715-9.293 20.715-20.716s-9.293-20.716-20.715-20.716z"/>
		
		
			<circle cx="376.96" cy="93.853" r="21.216"/>
			<path d="m376.96 115.57c-11.975 0-21.717-9.742-21.717-21.716 0-11.975 9.742-21.716 21.717-21.716s21.717 9.742 21.717 21.716-9.742 21.716-21.717 21.716zm0-42.432c-11.423 0-20.717 9.293-20.717 20.716s9.294 20.716 20.717 20.716 20.717-9.293 20.717-20.716-9.294-20.716-20.717-20.716z"/>
		
		
			<path d="m591.52 524.86v-457.7c0-32.058-26.082-58.14-58.141-58.14h-474.74c-32.058 0-58.14 26.082-58.14 58.14v457.7c0 32.058 26.082 58.14 58.14 58.14h474.74c32.059 0 58.141-26.082 58.141-58.14zm-548.18-457.7c0-8.45 6.85-15.3 15.3-15.3h474.74c8.449 0 15.301 6.85 15.301 15.3v65.484h-505.34v-65.484zm0 457.7v-349.37h505.34v349.37c0 8.449-6.852 15.3-15.301 15.3h-474.74c-8.45 0-15.3-6.851-15.3-15.3z"/>
			<path d="m533.38 583.5h-474.74c-32.334 0-58.64-26.306-58.64-58.64v-457.7c0-32.334 26.306-58.64 58.64-58.64h474.74c32.335 0 58.641 26.306 58.641 58.64v457.7c0 32.334-26.306 58.64-58.641 58.64zm-474.74-573.98c-31.783 0-57.64 25.857-57.64 57.64v457.7c0 31.782 25.857 57.64 57.64 57.64h474.74c31.783 0 57.641-25.857 57.641-57.64v-457.7c0-31.783-25.857-57.64-57.641-57.64h-474.74zm474.74 531.14h-474.74c-8.712 0-15.8-7.088-15.8-15.8v-349.87h506.34v349.87c0 8.712-7.088 15.8-15.801 15.8zm-489.54-364.67v348.87c0 8.161 6.64 14.8 14.8 14.8h474.74c8.161 0 14.801-6.639 14.801-14.8v-348.87h-504.34zm505.34-42.84h-506.34v-65.984c0-8.712 7.088-15.8 15.8-15.8h474.74c8.713 0 15.801 7.088 15.801 15.8v65.984zm-505.34-1h504.34v-64.984c0-8.161-6.64-14.8-14.801-14.8h-474.74c-8.161 0-14.8 6.639-14.8 14.8v64.984z"/>


</svg>
